<svg viewBox="0 0 426 128" fill="none" xmlns="http://www.w3.org/2000/svg" class="Header_header__svg__LQqzb"><path fill-rule="evenodd" clip-rule="evenodd" d="M39.68 24.656L40.836 0H26.398l1.156 24.656-23.092-8.718L0 29.668l23.807 6.52L8.38 55.457l11.68 8.487 13.558-20.628 13.558 20.627 11.68-8.486L43.43 36.188l23.804-6.52-4.461-13.73-23.092 8.718zM33.617 33v.001z" fill="#FAFAFA"></path><path d="M325.235 34.928v7.526h1.029c1.286-2.616 3.151-4.567 5.596-5.853 2.444-1.287 5.724-1.93 9.84-1.93h9.391v15.437h-9.455c-3.559 0-6.475.6-8.747 1.8-2.273 1.159-3.988 3.002-5.146 5.532-1.115 2.53-1.672 5.768-1.672 9.713v35.118h-18.975V34.928h18.139zM237.72 54.29c.471-4.203 1.994-7.869 4.566-10.999 2.616-3.173 6.175-5.617 10.677-7.332 4.546-1.716 9.884-2.573 16.016-2.573 6.303 0 11.685.964 16.144 2.894 4.46 1.93 7.89 4.889 10.292 8.876 2.401 3.945 3.602 8.94 3.602 14.987v42.129h-17.495v-6.946h-1.03c-1.415 2.316-3.773 4.245-7.075 5.789-3.302 1.543-7.825 2.315-13.571 2.315-5.146 0-9.648-.814-13.508-2.444-3.859-1.672-6.86-4.052-9.004-7.14-2.101-3.13-3.152-6.817-3.152-11.063 0-6.389 2.165-11.32 6.496-14.793 4.374-3.473 10.184-5.639 17.431-6.496l22.769-2.83V57.44c0-3.602-1.007-6.239-3.023-7.91-2.015-1.716-5.06-2.574-9.133-2.574-4.074 0-7.247.794-9.52 2.38-2.272 1.544-3.559 3.838-3.859 6.882H237.72v-1.93zm15.308 27.4c0 2.444.965 4.374 2.894 5.789 1.93 1.415 4.631 2.123 8.104 2.123 3.302 0 6.218-.58 8.748-1.737 2.53-1.158 4.502-2.895 5.917-5.21 1.458-2.316 2.187-5.146 2.187-8.49v-2.766l-18.46 2.444c-2.915.386-5.209 1.222-6.882 2.508-1.672 1.287-2.508 3.066-2.508 5.34zM159.351 34.929h18.46v6.56h1.029c2.315-2.744 5.188-4.738 8.619-5.981 3.43-1.287 7.354-1.93 11.77-1.93 5.789 0 10.999 1.308 15.63 3.924 4.631 2.572 8.297 6.496 10.999 11.77 2.701 5.232 4.052 11.685 4.052 19.36 0 7.676-1.351 14.151-4.052 19.425-2.702 5.232-6.368 9.134-10.999 11.706-4.631 2.573-9.841 3.86-15.63 3.86-4.288 0-8.104-.579-11.449-1.737-3.344-1.158-6.174-3.023-8.49-5.596h-.965V128h-18.974V34.929zm18.138 33.703c0 4.331.686 8.04 2.058 11.128 1.372 3.044 3.302 5.36 5.789 6.947 2.53 1.543 5.467 2.315 8.812 2.315 3.345 0 6.26-.772 8.748-2.316 2.529-1.586 4.48-3.902 5.853-6.946 1.372-3.087 2.058-6.797 2.058-11.128 0-4.373-.686-8.082-2.058-11.127-1.373-3.044-3.324-5.36-5.853-6.946-2.488-1.587-5.403-2.38-8.748-2.38-3.345 0-6.282.793-8.812 2.38-2.487 1.586-4.417 3.902-5.789 6.946-1.372 3.045-2.058 6.754-2.058 11.127zM75.372 34.929c0-5.36 1.372-10.056 4.116-14.086 2.787-4.03 6.904-7.161 12.35-9.39 5.488-2.23 12.156-3.346 20.003-3.346 7.933 0 14.708 1.158 20.325 3.474 5.618 2.315 9.97 5.638 13.057 9.97 3.088 4.33 4.803 9.476 5.146 15.436v1.93h-18.396c-.171-3.774-1.136-6.818-2.894-9.134-1.715-2.315-4.031-3.966-6.947-4.952-2.873-1.03-6.239-1.544-10.098-1.544-3.645 0-6.775.429-9.391 1.286-2.615.858-4.63 2.123-6.046 3.795-1.372 1.63-2.058 3.624-2.058 5.982s.622 4.31 1.865 5.853c1.244 1.544 3.045 2.787 5.403 3.73 2.359.901 5.339 1.609 8.941 2.123l10.291 1.48c6.732.943 12.328 2.508 16.787 4.695 4.503 2.187 7.912 5.167 10.227 8.94 2.359 3.774 3.538 8.426 3.538 13.958 0 5.746-1.437 10.784-4.31 15.115-2.872 4.288-7.139 7.633-12.799 10.034-5.617 2.358-12.478 3.538-20.583 3.538-8.147 0-15.243-1.201-21.29-3.602-6.046-2.445-10.741-5.875-14.086-10.291-3.301-4.46-5.08-9.67-5.338-15.63v-1.93H91.58c.472 5.617 2.659 9.734 6.561 12.35 3.945 2.615 9.091 3.923 15.437 3.923 3.988 0 7.397-.472 10.227-1.415 2.83-.986 4.974-2.423 6.432-4.31 1.458-1.886 2.187-4.159 2.187-6.817 0-2.573-.622-4.674-1.866-6.304-1.243-1.63-3.066-2.894-5.467-3.795-2.401-.9-5.531-1.629-9.391-2.186l-10.291-1.48c-6.518-.943-12.006-2.551-16.466-4.824-4.46-2.315-7.847-5.338-10.162-9.069-2.273-3.773-3.41-8.276-3.41-13.507zM403.563 34.93l-26.178 24.763h-1.029V9.652h-18.975v92.62h18.975v-26.95h1.029l25.728 26.95h22.383v-1.929l-33.189-33.318 32.996-30.166v-1.93h-21.74z" fill="#fff"></path></svg>